<svg width="939" height="120" viewBox="0 0 939 120" fill="none" xmlns="http://www.w3.org/2000/svg">
<path d="M0.0249958 115.444C0.0249958 114.662 0.474921 114.041 1.38727 113.594C2.29962 113.147 3.71188 112.762 5.63656 112.415C10.0483 111.645 13.2103 110.317 15.0725 108.467C16.9347 106.617 17.772 103.687 17.5971 99.6648C16.9722 76.0273 18.0845 52.4643 17.9345 28.8392C17.9345 23.4637 17.2346 19.491 15.8224 16.9212C14.4101 14.3513 11.6481 12.7498 7.62373 12.0546C3.92435 11.4215 2.04966 10.2669 2.04966 8.70267C2.04966 7.47362 3.68689 6.85289 6.94885 6.85289C11.7855 6.85289 14.9475 6.91496 16.4098 7.02669H23.5086C25.1958 7.02669 27.1705 6.96462 29.4201 6.85289C31.6697 6.74115 33.3695 6.64184 34.4943 6.51769C37.4063 6.20732 40.0184 6.00869 42.268 6.00869C55.2158 6.00869 65.5891 8.66542 73.3628 13.9789C81.1365 19.2924 85.0234 26.5922 85.0234 35.8783C85.0234 42.9299 83.6236 49.3234 79.6743 55.0962C75.7249 60.869 70.5883 65.4376 64.8267 68.802C59.0527 72.1539 52.5913 73.8299 44.7926 73.8299C42.6804 73.8299 40.9682 73.4947 39.6684 72.8243C38.3686 72.1539 37.7312 71.4215 37.7687 70.6394C37.7937 70.1924 38.1187 69.6958 38.7436 69.1248C39.3685 68.5661 39.9559 68.2806 40.4808 68.2806C40.8057 68.2806 41.6306 68.3426 42.9429 68.4544C44.2677 68.5661 45.8799 68.6282 47.7921 68.6282C54.0535 68.6282 59.0652 65.8969 63.4395 60.3973C67.8137 54.91 70.4758 47.126 70.4758 37.0577C70.4758 28.442 67.9137 21.8994 62.7896 17.4178C57.6654 12.9485 50.8166 10.7014 42.2555 10.7014C35.0442 10.7014 31.4448 13.0478 31.4448 17.7529C31.4448 44.4817 29.5326 71.1235 30.6199 97.815C30.9574 102.061 32.0822 105.363 33.9569 107.709C35.844 110.056 38.8311 111.67 42.8929 112.402C44.8051 112.75 46.2423 113.135 47.1547 113.582C48.067 114.029 48.5294 114.649 48.5294 115.431C48.5294 116.66 46.8547 117.281 43.5803 117.281C39.9684 117.281 36.6814 117.07 33.7694 116.611C31.7572 116.288 29.4826 116.102 26.9955 116.114C24.9584 116.114 22.8962 116.201 20.7965 116.362C18.6969 116.536 17.1971 116.611 16.2973 116.611C11.7605 117.058 7.97368 117.281 4.92418 117.281C1.63723 117.281 0 116.66 0 115.431L0.0249958 115.444Z" fill="black"/>
<path d="M124.779 111.831C115.256 107.2 105.645 100.708 98.7336 92.3277C91.8223 83.9603 89.6351 74.3886 92.7096 63.6127C95.6591 53.2837 99.0835 43.6623 103.595 34.7114C108.095 25.7604 114.693 18.5723 123.367 13.1471C132.041 7.72191 142.401 5.0031 154.462 5.0031C164.373 5.0031 173.646 7.32464 182.257 11.9677C190.868 16.6108 197.742 23.1285 202.866 31.5208C207.99 39.9131 209.128 49.4724 200.254 60.3228C191.743 70.7138 185.932 80.36 186.606 89.2613C187.269 98.1626 188.431 105.264 182.382 110.664C176.321 116.065 165.135 118.796 153.1 118.796C143.189 118.796 134.328 116.462 124.804 111.831H124.779ZM176.471 100.497C177.296 92.7871 171.709 82.2222 179.583 68.6033C185.769 57.9143 192.693 48.2557 189.419 39.7641C186.157 31.2601 181.332 24.5189 174.971 19.5407C168.609 14.5624 160.861 12.067 151.737 12.067C139.239 12.067 129.653 15.9032 123.017 23.563C116.368 31.2228 115.406 41.738 110.894 55.2079C107.32 65.8721 106.195 75.5183 109.444 84.1341C112.694 92.7623 121.105 99.5406 129.329 104.556C137.54 109.572 145.801 112.092 154.812 112.092C167.26 112.092 175.646 108.218 176.471 100.509V100.497Z" fill="black"/>
<path d="M312.098 117.964C307.999 116.623 303.812 114.277 297.938 110.95C287.54 105.227 276.654 100.348 266.231 94.7983C257.945 90.3911 247.196 83.9106 246.772 75.4811C246.659 72.6754 246.597 70.4159 245.309 68.8765C243.797 67.0639 241.06 65.8721 237.036 65.301C236.911 65.301 236.861 65.301 236.736 65.301C235.436 65.301 233.586 66.4308 231.674 68.6902C221.938 77.4302 228.475 92.576 237.998 98.1626C246.709 106.344 254.295 111.111 262.569 112.452C264.669 112.787 266.293 113.172 267.443 113.619C268.593 114.066 269.38 114.674 269.705 115.456C270.218 116.685 268.68 117.294 265.431 117.294C261.844 117.294 258.532 117.083 255.52 116.623C253.42 116.3 251.121 116.114 248.671 116.114C246.659 116.114 244.647 116.201 242.622 116.363C240.598 116.536 239.123 116.611 238.235 116.611C233.849 117.058 230.112 117.281 227.087 117.281C223.838 117.281 222.176 116.66 221.826 115.431C221.613 114.649 221.813 114.041 222.513 113.594C223.213 113.147 224.413 112.762 226.125 112.427C230.024 111.657 232.361 110.341 232.774 108.516C233.186 106.691 231.387 103.786 227.4 99.8014C198.754 64.9783 247.946 63.5258 240.11 28.1813C240.11 23.4761 239.91 20.149 239.523 18.1999C239.123 16.2384 238.223 14.8107 236.823 13.9168C235.423 13.023 233.011 12.3402 229.812 12.067C228.05 11.9181 226.625 11.558 225.675 10.8876C224.713 10.2173 224.238 9.48479 224.238 8.70267C224.238 7.47362 225.875 6.85289 229.137 6.85289C233.974 6.85289 237.136 6.91496 238.598 7.02669H245.697C247.384 7.02669 249.933 6.89013 253.295 6.6915C259.344 6.31906 263.319 6.1825 265.118 6.1825C277.504 6.1825 286.94 8.50403 293.414 13.1471C299.888 17.7902 302.925 24.8541 303.125 33.7058C303.525 50.6394 277.391 57.8274 264.744 62.0981C264.306 62.2098 263.806 62.4953 263.269 62.9547C262.869 63.2899 262.481 63.7492 262.119 64.3203C255.858 75.1086 260.457 83.4389 269.18 88.9386C280.953 96.3625 294.739 101.403 307.674 106.828C313.236 109.15 317.447 110.639 320.909 111.31C324.371 111.98 328.358 112.303 332.932 112.315C334.607 112.315 336.094 112.924 337.057 114.14C338.706 116.251 337.644 117.765 334.844 118.659C332.032 119.553 328.92 120 325.771 120C320.584 120 316.197 119.33 312.098 117.989V117.964ZM263.019 57.9268C269.318 55.6052 275.954 52.514 281.128 48.6778C286.302 44.8417 287.927 40.7697 287.927 36.3997C287.927 28.4544 286.24 22.2719 282.853 17.8523C279.479 13.4326 272.88 11.2228 263.081 11.2228C259.594 11.2228 257.257 12.3153 256.07 14.5003C254.883 16.6853 254.158 20.8194 253.958 26.8405C253.708 34.4258 256.345 43.9106 244.909 55.4562C242.335 58.0633 241.172 59.702 241.685 60.3848C242.197 61.0677 243.934 61.4029 246.896 61.4153C251.396 61.4153 256.707 60.2607 263.006 57.9392L263.019 57.9268Z" fill="black"/>
<path d="M368.314 115.456C367.789 114.687 367.714 114.066 368.201 113.631C368.689 113.184 369.701 112.8 371.238 112.477C374.763 111.719 376.45 110.329 375.65 108.355C374.863 106.381 370.863 103.476 363.927 99.6524C306.349 63.9106 391.522 70.9497 388.635 34.2272C388.635 26.7287 388.385 21.6636 387.873 19.0441C387.361 16.4122 386.386 15.0217 385.086 14.761C383.661 14.4755 381.899 14.2272 379.937 14.1775C377.962 14.1155 375.688 14.0906 373.088 14.0906H365.152C362.227 14.0906 359.465 14.6493 356.878 15.7666C354.291 16.8839 352.429 18.5102 351.304 20.6331C350.629 21.9739 349.579 23.3768 348.18 24.8293C346.767 26.2818 345.505 27.0143 344.38 27.0143C343.593 27.0143 343.193 26.2818 343.193 24.8293C343.193 23.712 343.468 22.5947 344.043 21.4773C345.618 18.4606 346.742 15.6921 347.417 13.1719C348.092 10.6518 348.755 7.51086 349.28 3.86096C349.642 1.31595 350.567 0 352.154 0C352.491 0 353.141 0.620732 354.091 1.84978C355.053 3.07883 355.791 4.3203 356.378 5.37554C356.991 6.48045 358.553 7.33706 360.853 7.89572C363.165 8.45438 365.614 8.73991 368.201 8.73991H427.679C434.665 8.73991 440.014 7.89572 443.726 6.21974C444.401 5.88454 445.389 5.23898 446.688 4.29547C447.988 3.35196 449.188 2.86778 450.325 2.86778C450.663 2.86778 450.95 3.28988 451.175 4.12166C451.4 4.95344 451.513 5.83488 451.513 6.72874C451.513 7.17567 451.288 8.73991 450.838 11.4339C450.438 13.4451 450.225 14.4507 449.825 16.4742C449.375 17.815 449.15 19.4413 449.15 21.3408V23.352C449.15 24.4693 448.9 25.6487 448.388 26.8777C447.876 28.1068 447.226 28.7275 446.451 28.7275C445.676 28.7275 445.039 28.1937 444.589 27.1384C444.139 26.0832 443.689 24.3079 443.239 21.8498C442.789 19.3917 441.377 17.4922 439.015 16.139C436.652 14.7983 432.878 14.1279 427.691 14.1279H410.632C407.82 14.1279 405.87 14.4631 404.808 15.1335C403.733 15.8038 403.033 17.3929 402.696 19.9131C402.358 22.4333 402.183 26.9398 402.183 33.4202C407.02 71.0366 316.185 63.4016 376.6 99.702C383.786 103.526 390.06 106.418 395.347 108.405C400.633 110.379 405.595 111.769 410.844 112.526C413.119 112.862 414.956 113.246 416.306 113.681C417.656 114.115 418.705 114.736 419.305 115.506C420.255 116.723 418.83 117.343 415.568 117.343C411.407 117.343 407.67 117.095 404.52 116.847C400.883 116.549 397.759 116.511 395.397 116.511C392.585 116.511 389.135 116.536 385.298 116.847C382.161 117.095 378.387 117.343 374.225 117.343C370.963 117.343 369.151 116.723 368.326 115.506L368.314 115.456Z" fill="black"/>
<path d="M454.912 115.469C454.262 114.699 454.05 114.091 454.437 113.644C454.824 113.209 455.749 112.824 457.187 112.489C460.374 111.744 461.461 110.428 459.786 108.628C458.111 106.828 452.887 103.973 444.139 100.074C369.639 63.3768 484.22 71.7318 473.796 28.8392C473.796 23.4637 473.096 19.491 471.684 16.9212C470.272 14.3513 467.51 12.7498 463.486 12.0546C459.786 11.4215 457.911 10.2669 457.911 8.70267C457.911 7.47362 459.536 6.85289 462.811 6.85289C466.973 6.85289 471.984 6.96462 477.846 7.18808C483.457 7.25015 486.257 7.2874 491.868 7.34947H513.165C516.314 7.34947 519.939 6.98945 523.976 6.34389C526.888 5.88454 528.875 5.67349 529.887 5.67349C531.799 5.67349 532.812 6.1825 532.924 7.18808C533.124 8.85164 533.349 11.6077 533.511 15.4066C533.686 19.2179 533.761 22.1229 533.761 24.1341C533.761 26.4804 533.249 27.6598 532.237 27.6598C531.674 27.6598 531.162 27.4612 530.712 27.0763C530.262 26.6791 529.924 26.2073 529.7 25.6487C528.687 21.8498 527.387 19.1061 525.813 17.4302C523.113 14.4134 519.339 12.8988 514.49 12.8988H493.031C490.669 12.8988 489.144 13.594 488.469 14.9969C487.794 16.3997 487.394 18.4978 487.282 21.2911C487.169 24.0844 487.107 29.6834 487.107 38.0757C487.107 46.0211 475.708 51.5332 470.359 54.2644C465.373 56.8094 462.998 58.0633 464.073 58.0633C466.947 58.0633 471.084 57.964 476.508 57.7281C479.42 57.666 480.87 57.6288 483.782 57.5667C486.032 57.5667 489.519 56.9087 494.13 55.5804C498.73 54.252 503.691 52.5512 508.266 50.4904C509.303 50.031 510.815 49.4351 512.715 48.6903C514.615 47.9454 515.652 47.5729 515.977 47.5729C516.414 47.5729 516.527 47.8585 516.189 48.4295C515.852 49.0006 515.027 49.6338 513.69 50.3166C506.378 54.2272 498.492 57.4053 492.843 59.8386C486.382 62.6195 476.408 66.6667 468.322 71.6077C465.11 73.5692 463.573 74.5251 462.686 74.5251C461.786 74.5251 461.548 74.0906 462.186 73.234C462.823 72.3774 463.848 71.4835 465.273 70.5649C468.835 68.1564 471.684 66.3935 472.734 65.2886C473.771 64.1961 473.621 63.6375 472.172 63.6375C469.21 63.563 467.735 63.5258 464.773 63.4513C460.199 63.4513 456.562 63.563 453.912 63.774C450.938 64.0099 445.838 65.301 441.502 68.0819C418.568 82.8305 436.64 91.1732 456.849 99.9255C465.473 103.662 472.747 106.456 478.146 108.479C483.532 110.503 488.294 111.831 493.218 112.502C495.568 112.824 497.505 113.222 498.955 113.656C500.404 114.091 501.579 114.699 502.317 115.469C503.466 116.685 502.092 117.294 498.842 117.294C495.243 117.294 491.843 117.083 488.644 116.623C486.394 116.3 484.007 116.127 481.545 116.127C479.633 116.127 477.771 116.214 475.921 116.375C474.071 116.536 472.697 116.623 471.797 116.623C467.822 117.07 464.223 117.294 461.073 117.294C457.811 117.294 455.949 116.685 454.924 115.469H454.912Z" fill="black"/>
<path d="M566.618 111.968C544.685 106.009 521.151 100.757 500.904 93.0726C475.446 83.4016 479.97 74.7982 503.366 64.221C516.752 58.175 546.772 49.9938 552.696 34.7238C555.97 26.2818 563.794 18.5847 572.467 13.1595C581.141 7.73433 591.502 5.01552 603.562 5.01552C613.473 5.01552 622.747 7.33706 631.358 11.9801C639.981 16.6232 646.618 24.4941 651.967 31.5332C665.19 48.9137 624.534 58.3116 617.323 60.8814C615.06 61.6884 554.708 78.7089 582.016 90.18C594.364 95.3693 614.823 100.646 622.284 110.85C625.434 115.158 613.861 118.783 601.838 118.821C589.952 118.845 577.904 115.034 566.618 111.968ZM595.589 101.006C574.58 91.9925 550.609 82.8181 579.491 69.4227C590.077 64.5065 639.756 51.2849 638.519 39.7517C637.794 33.023 630.433 24.5065 624.071 19.5282C617.71 14.55 609.961 12.0546 600.838 12.0546C588.34 12.0546 578.691 15.8907 572.117 23.5506C558.245 39.6896 562.157 45.1893 539.71 55.5307C533.274 58.4978 486.807 74.6865 499.267 85.0652C512.477 96.0645 538.198 100.087 557.582 104.891C570.255 108.032 583.853 112.104 597.038 112.204C609.424 112.303 612.173 108.107 595.601 100.993L595.589 101.006Z" fill="black"/>
<path d="M671.251 116.735C670.014 116.35 669.064 115.878 668.302 115.332C666.477 114.016 665.889 113.023 667.177 112.551C669.776 111.608 670.351 110.391 667.714 108.665C665.09 106.952 657.953 104.382 646.28 100.968C636.719 98.0012 602.637 92.1291 603.525 80.7325C604.287 71.0366 636.119 63.5754 640.444 62.1229C651.879 58.2744 672.013 55.2948 681.362 47.2502C691.51 38.5227 689.198 34.7858 689.198 22.4581C689.198 19.7765 688.911 17.7778 688.348 16.4991C687.786 15.2204 686.849 14.2893 685.561 13.7306C684.261 13.1719 682.037 12.6133 678.887 12.0546C675.175 11.3842 673.313 10.2669 673.313 8.70267C673.313 7.47362 674.938 6.85289 678.212 6.85289C681.487 6.85289 685.086 6.96462 688.686 7.18808C692.06 7.25015 693.76 7.2874 697.134 7.34947C701.184 7.2874 703.221 7.25015 707.27 7.18808C711.544 6.96462 715.269 6.85289 718.418 6.85289C721.568 6.85289 723.317 7.47362 723.317 8.70267C723.317 10.2669 721.443 11.3718 717.743 12.0546C712.469 13.0354 708.62 14.1279 706.258 15.2452C703.896 16.3625 702.708 18.3737 702.708 21.2911C702.708 52.0546 681.487 52.5512 654.754 61.527C649.367 63.3395 613.411 71.5084 613.611 78.6716C614.011 92.8492 652.142 99.0192 658.691 100.993C671.001 104.507 679.925 107.014 685.936 108.516C691.948 110.019 697.147 110.776 702.308 110.776C710.47 110.776 714.569 110.776 722.743 110.776C725.492 110.776 726.917 110.341 726.679 109.485C726.442 108.628 725.13 107.672 722.668 106.605C718.643 104.792 714.081 103.178 709.645 101.738C705.195 100.31 697.847 98.1626 689.036 95.2948C685.699 94.2272 682.624 93.1595 679.95 92.0919C677.275 91.0242 676.463 90.478 677.05 90.4904C677.65 90.4904 678.887 90.7883 680.924 91.3842C682.962 91.9801 685.186 92.6505 687.648 93.3954C688.648 93.7182 689.148 93.8796 690.185 94.2023C703.696 98.3613 717.406 101.887 730.929 105.909C739.977 108.603 748.576 111.484 753.925 114.538C757.149 116.387 756.999 117.331 755.65 117.331C743.627 117.331 732.353 117.095 721.955 116.834C710.345 116.536 701.971 116.499 697.047 116.499C693.572 116.499 689.461 116.611 684.649 116.834C679.837 117.058 676.625 117.281 675.2 117.331C673.801 117.38 672.438 117.132 671.214 116.747L671.251 116.735Z" fill="black"/>
<path d="M765.073 115.506C763.848 114.749 763.086 114.14 763.061 113.706C763.036 113.271 763.548 112.886 764.66 112.564C767.273 111.806 767.26 110.54 763.611 108.777C759.949 107.014 750.963 104.333 736.59 100.732C731.491 99.3793 687.736 93.0478 686.111 79.4041C685.336 72.9236 723.717 64.432 728.779 62.9174C742.464 58.8206 770.16 55.7418 780.633 46.3066C788.881 38.8703 787.919 35.2204 787.919 24.1341C787.919 20.2235 787.094 17.4178 785.47 15.7418C783.832 14.0658 780.87 12.8243 776.596 12.0546C772.884 11.3842 771.022 10.2669 771.022 8.70267C771.022 7.47362 772.659 6.85289 775.921 6.85289C779.183 6.85289 782.682 6.96462 786.732 7.18808C790.319 7.25015 792.106 7.2874 795.693 7.34947C798.942 7.2874 800.555 7.25015 803.804 7.18808C807.403 6.96462 810.84 6.85289 814.115 6.85289C817.389 6.85289 819.014 7.47362 819.014 8.70267C819.014 10.2669 817.152 11.3966 813.44 12.0546C809.053 12.8367 805.941 14.103 804.141 15.8287C802.342 17.5667 801.442 20.3352 801.442 24.1341C801.442 70.7387 723.967 53.532 697.022 81.1049C706.595 93.8051 736.853 97.5295 749.301 100.745C763.911 104.345 775.134 107.027 783.157 108.79C791.181 110.552 797.892 111.819 804.266 112.576C806.978 112.899 809.303 113.284 811.178 113.718C813.04 114.153 814.777 114.749 816.077 115.506C818.127 116.71 817.014 117.318 813.752 117.318C809.591 117.318 805.754 117.083 802.367 116.822C798.567 116.536 795.355 116.487 792.993 116.487C790.181 116.487 786.807 116.499 783.145 116.822C780.258 117.07 776.583 117.318 772.422 117.318C769.16 117.318 767.048 116.71 765.11 115.506H765.073Z" fill="black"/>
<path d="M846.884 112.017C816.427 105.487 784.57 100.857 755.075 93.4699C750.288 92.2781 727.104 88.5413 727.129 80.2855C727.154 71.7443 756.087 66.4929 762.898 64.5562C780.395 59.5779 829.75 53.7058 837.723 34.7238C841.335 26.1204 848.822 18.5847 857.495 13.1595C866.169 7.73433 876.529 5.01552 888.59 5.01552C898.501 5.01552 907.774 7.33706 916.385 11.9801C925.009 16.6232 931.683 24.1961 936.994 31.5332C951.142 51.049 885.803 61.0428 885.803 61.0428C885.803 61.0428 801.604 81.316 837.886 90.478C857.833 95.5183 884.166 100.248 902.213 110.888C910.024 115.493 898.701 118.845 886.678 118.808C873.492 118.771 859.62 114.736 846.897 112.017H846.884ZM863.132 101.192C847.234 96.8839 824.876 94.7238 812.678 82.6195C818.202 74.6617 827.425 71.2601 836.724 69.7207C854.246 66.8156 922.709 52.6505 923.559 39.7517C923.909 34.4506 915.473 24.5065 909.112 19.5282C902.75 14.55 895.001 12.0546 885.878 12.0546C873.38 12.0546 863.669 15.9032 857.158 23.5506C853.733 27.5605 852.821 33.5071 849.721 37.2936C840.335 48.7772 825.375 51.6201 811.415 55.6921C803.029 58.1378 730.729 76.6108 745.776 85.5493C766.948 98.1254 801.992 100.074 829.212 105.053C845.172 107.97 861.682 112.042 877.779 112.253C890.215 112.415 889.765 108.405 863.132 101.192Z" fill="black"/>
</svg>
